<?xml version="1.0" standalone="no"?>
<!DOCTYPE svg PUBLIC "-//W3C//DTD SVG 20010904//EN"
 "http://www.w3.org/TR/2001/REC-SVG-20010904/DTD/svg10.dtd">
<svg version="1.0" xmlns="http://www.w3.org/2000/svg"
 width="534.000000pt" height="1102.000000pt" viewBox="0 0 534.000000 1102.000000"
 preserveAspectRatio="xMidYMid meet">

<g transform="translate(0.000000,1102.000000) scale(0.100000,-0.100000)"
fill="#000000" stroke="none">
<path d="M995 10994 c-241 -20 -390 -64 -535 -158 -218 -141 -349 -354 -397
-646 -12 -77 -16 -222 -20 -765 -4 -559 -7 -671 -19 -678 -22 -12 -21 -495 1
-503 22 -9 22 -369 0 -378 -23 -8 -23 -814 0 -822 22 -9 22 -224 0 -224 -22 0
-23 -805 0 -817 12 -7 15 -335 18 -2548 2 -1975 6 -2556 16 -2613 54 -317 178
-523 404 -670 113 -73 240 -118 402 -143 133 -21 3477 -21 3610 0 162 25 289
70 402 143 227 149 355 362 405 676 9 58 13 742 15 2764 3 2354 6 2686 18
2681 13 -4 15 78 15 642 0 556 -2 646 -14 642 -13 -5 -15 168 -19 1251 -3 879
-8 1280 -16 1334 -61 406 -283 677 -641 784 -167 49 -90 48 -1910 49 -932 1
-1713 0 -1735 -1z m3313 -184 c232 -14 350 -47 483 -136 143 -95 245 -251 291
-444 l23 -95 0 -4630 0 -4630 -23 -95 c-46 -193 -148 -349 -291 -444 -132 -88
-249 -121 -478 -136 -195 -13 -3091 -13 -3286 0 -229 15 -346 48 -478 136
-143 95 -245 251 -291 444 l-23 95 0 4630 0 4630 22 95 c45 191 149 349 292
444 128 86 256 123 461 135 184 12 3118 12 3298 1z m999 -3332 c-3 -8 -6 -5
-6 6 -1 11 2 17 5 13 3 -3 4 -12 1 -19z m0 -1110 c-3 -7 -5 -2 -5 12 0 14 2
19 5 13 2 -7 2 -19 0 -25z"/>
<path d="M2045 10636 c-152 -66 -186 -267 -63 -371 67 -56 50 -55 688 -55 638
0 621 -1 688 55 100 84 100 246 0 330 -67 56 -49 55 -690 55 -466 -1 -599 -4
-623 -14z"/>
</g>
</svg>
